<mxfile host="app.diagrams.net" modified="2020-12-09T11:36:38.532Z" agent="5.0 (Windows NT 10.0; Win64; x64) AppleWebKit/537.36 (KHTML, like Gecko) Chrome/87.0.4280.88 Safari/537.36" etag="FR76Xgvh4u5G1dHxlFqK" version="13.11.0" type="github">
  <diagram id="3DIlXLQ4UgavzZuqrzp-" name="第 1 页">
    <mxGraphModel dx="1209" dy="781" grid="1" gridSize="10" guides="1" tooltips="1" connect="1" arrows="1" fold="1" page="1" pageScale="1" pageWidth="3200" pageHeight="1920" math="0" shadow="0">
      <root>
        <mxCell id="0" />
        <mxCell id="1" parent="0" />
        <mxCell id="3xzh66dISei7fghn00xY-3" value="" style="edgeStyle=orthogonalEdgeStyle;rounded=0;orthogonalLoop=1;jettySize=auto;html=1;" edge="1" parent="1" source="3xzh66dISei7fghn00xY-1" target="3xzh66dISei7fghn00xY-2">
          <mxGeometry relative="1" as="geometry" />
        </mxCell>
        <mxCell id="3xzh66dISei7fghn00xY-1" value="确定参与查询的表，&lt;br&gt;创建fromMap" style="rounded=0;whiteSpace=wrap;html=1;" vertex="1" parent="1">
          <mxGeometry x="430" y="240" width="120" height="60" as="geometry" />
        </mxCell>
        <mxCell id="3xzh66dISei7fghn00xY-5" value="" style="edgeStyle=orthogonalEdgeStyle;rounded=0;orthogonalLoop=1;jettySize=auto;html=1;" edge="1" parent="1" source="3xzh66dISei7fghn00xY-2" target="3xzh66dISei7fghn00xY-4">
          <mxGeometry relative="1" as="geometry" />
        </mxCell>
        <mxCell id="3xzh66dISei7fghn00xY-2" value="确定结果集" style="rounded=0;whiteSpace=wrap;html=1;" vertex="1" parent="1">
          <mxGeometry x="430" y="380" width="120" height="60" as="geometry" />
        </mxCell>
        <mxCell id="3xzh66dISei7fghn00xY-7" value="" style="edgeStyle=orthogonalEdgeStyle;rounded=0;orthogonalLoop=1;jettySize=auto;html=1;" edge="1" parent="1" source="3xzh66dISei7fghn00xY-4" target="3xzh66dISei7fghn00xY-6">
          <mxGeometry relative="1" as="geometry" />
        </mxCell>
        <mxCell id="3xzh66dISei7fghn00xY-4" value="构造predicate" style="rounded=0;whiteSpace=wrap;html=1;" vertex="1" parent="1">
          <mxGeometry x="430" y="520" width="120" height="60" as="geometry" />
        </mxCell>
        <mxCell id="3xzh66dISei7fghn00xY-6" value="排序字段" style="rounded=0;whiteSpace=wrap;html=1;" vertex="1" parent="1">
          <mxGeometry x="430" y="660" width="120" height="60" as="geometry" />
        </mxCell>
      </root>
    </mxGraphModel>
  </diagram>
</mxfile>
